<svg xmlns="http://www.w3.org/2000/svg" xmlns:xlink="http://www.w3.org/1999/xlink" xml:space="preserve" version="1.1" style="shape-rendering:geometricPrecision;text-rendering:geometricPrecision;image-rendering:optimizeQuality;" viewBox="0 0 847 1058.75" x="0px" y="0px" fill-rule="evenodd" clip-rule="evenodd"><defs><style type="text/css">
   
    .fil0 {fill:black}
   
  </style></defs><g><path class="fil0" d="M133 357c19,0 33,15 33,33 0,19 -14,34 -33,34 -18,0 -33,-15 -33,-34 0,-18 15,-33 33,-33zm0 14c11,0 20,9 20,19 0,11 -9,20 -20,20 -11,0 -19,-9 -19,-20 0,-10 8,-19 19,-19z"/><path class="fil0" d="M156 507c15,-9 36,-4 45,12 9,16 4,36 -12,45 -16,9 -36,4 -46,-12 -9,-16 -3,-36 13,-45zm6 11c10,-5 22,-2 27,8 6,9 2,21 -7,27 -9,5 -21,2 -27,-8 -5,-9 -2,-21 7,-27z"/><path class="fil0" d="M250 625c9,-16 29,-21 45,-12 16,9 21,29 12,45 -9,16 -29,22 -45,12 -16,-9 -22,-29 -12,-45zm11 7c6,-10 18,-13 27,-7 10,5 13,17 7,26 -5,10 -17,13 -27,8 -9,-6 -12,-18 -7,-27z"/><path class="fil0" d="M390 681c0,-19 15,-34 33,-34 19,0 34,15 34,34 0,18 -15,33 -34,33 -18,0 -33,-15 -33,-33zm14 0c0,-11 9,-20 19,-20 11,0 20,9 20,20 0,10 -9,19 -20,19 -10,0 -19,-9 -19,-19z"/><path class="fil0" d="M540 658c-10,-16 -4,-36 12,-45 16,-9 36,-4 45,12 9,16 4,36 -12,45 -16,10 -36,4 -45,-12zm11 -7c-5,-9 -2,-21 8,-26 9,-6 21,-3 26,7 6,9 3,21 -7,27 -9,5 -21,2 -27,-8z"/><path class="fil0" d="M658 564c-16,-9 -21,-29 -12,-45 9,-16 29,-22 45,-12 16,9 22,29 12,45 -9,16 -29,21 -45,12zm7 -12c-10,-5 -13,-17 -7,-26 5,-10 17,-13 26,-8 10,6 13,18 8,27 -6,10 -18,13 -27,7z"/><path class="fil0" d="M713 424c-18,0 -33,-15 -33,-34 0,-18 15,-33 33,-33 19,0 34,15 34,33 0,19 -15,34 -34,34zm0 -14c-10,0 -19,-9 -19,-20 0,-10 9,-19 19,-19 11,0 20,9 20,19 0,11 -9,20 -20,20z"/><path class="fil0" d="M691 274c-16,9 -36,4 -45,-12 -9,-16 -4,-36 12,-45 16,-10 36,-4 45,12 10,16 4,36 -12,45zm-7 -12c-9,6 -21,3 -26,-7 -6,-9 -3,-21 7,-27 9,-5 21,-2 27,8 5,9 2,21 -8,26z"/><path class="fil0" d="M597 156c-9,16 -29,21 -45,12 -16,-9 -22,-30 -12,-45 9,-16 29,-22 45,-13 16,10 21,30 12,46zm-12 -7c-5,9 -17,13 -26,7 -10,-5 -13,-17 -8,-27 6,-9 18,-12 27,-7 10,6 13,18 7,27z"/><path class="fil0" d="M457 100c0,19 -15,34 -34,34 -18,0 -33,-15 -33,-34 0,-18 15,-33 33,-33 19,0 34,15 34,33zm-14 0c0,11 -9,20 -20,20 -11,0 -19,-9 -19,-20 0,-11 8,-19 19,-19 11,0 20,8 20,19z"/><path class="fil0" d="M307 123c9,15 4,36 -12,45 -16,9 -36,4 -46,-12 -9,-16 -3,-36 13,-46 16,-9 36,-3 45,13zm-12 6c6,10 2,22 -7,27 -9,6 -21,2 -27,-7 -5,-9 -2,-21 7,-27 10,-5 22,-2 27,7z"/><path class="fil0" d="M189 217c16,9 21,29 12,45 -9,16 -30,21 -46,12 -15,-9 -21,-29 -12,-45 9,-16 30,-22 46,-12zm-7 11c9,6 13,18 7,27 -5,10 -17,13 -27,7 -9,-5 -12,-17 -7,-26 6,-10 18,-13 27,-8z"/><path class="fil0" d="M469 589c-14,4 -30,5 -46,5 -15,0 -31,-1 -46,-5l4 -13c14,3 28,5 42,5 15,0 29,-2 43,-5l3 13z"/><path class="fil0" d="M423 186c113,0 204,92 204,204 0,90 -57,165 -136,193l-4 -13c74,-26 127,-97 127,-180 0,-105 -86,-190 -191,-190 -105,0 -190,85 -190,190 0,83 53,154 127,180l-4 13c-80,-28 -137,-103 -137,-193 0,-112 92,-204 204,-204z"/><path class="fil0" d="M478 623c-17,4 -36,6 -55,6 -19,0 -37,-2 -55,-6l4 -13c16,4 34,6 51,6 18,0 35,-2 52,-6l3 13z"/><path class="fil0" d="M423 152c132,0 239,107 239,238 0,106 -68,195 -162,227l-4 -13c89,-31 152,-115 152,-214 0,-124 -100,-225 -225,-225 -124,0 -225,101 -225,225 0,99 64,183 153,214l-4 13c-94,-32 -162,-121 -162,-227 0,-131 106,-238 238,-238z"/><path class="fil0" d="M513 734l-88 -326c-1,0 -2,0 -4,0l-87 326c-107,0 -214,0 -321,0l0 -13 311 0 85 -320c-2,-3 -3,-7 -3,-11 0,-9 8,-17 17,-17 10,0 18,8 18,17 0,4 -1,8 -4,11l86 320 311 0 0 13c-107,0 -214,0 -321,0z"/><polygon class="fil0" points="115,766 732,766 732,780 115,780 "/></g><text x="0" y="862" fill="#000000" font-size="5px" font-weight="bold" font-family="'Helvetica Neue', Helvetica, Arial-Unicode, Arial, Sans-serif">Created by sumhi_icon</text><text x="0" y="867" fill="#000000" font-size="5px" font-weight="bold" font-family="'Helvetica Neue', Helvetica, Arial-Unicode, Arial, Sans-serif">from the Noun Project</text></svg>